<svg xmlns="http://www.w3.org/2000/svg" width="512" height="512" fill-rule="evenodd" clip-rule="evenodd" image-rendering="optimizeQuality" shape-rendering="geometricPrecision" text-rendering="geometricPrecision" viewBox="0 0 512 512"><path d="M408 14l0 0zm-273 0c7,-2 6,-3 1,-5l-14 -4 -19 0c-17,1 13,12 32,9zm38 251c-23,-11 -48,-75 -62,-128 -30,83 -45,219 28,283 63,57 137,95 207,92 41,-2 63,-35 73,-74 19,-75 -4,-189 -53,-238 -25,-25 -47,-50 -70,-77 -25,23 -46,46 -54,62 2,4 8,12 17,22 6,-1 27,-9 20,-34 -1,-4 4,-6 5,-2 8,27 -11,38 -21,41 14,16 34,35 56,49 5,-1 27,-9 20,-35 -1,-3 4,-5 5,-1 8,25 -9,36 -19,40 12,7 24,12 37,14 3,1 2,7 -1,6 -41,-7 -82,-45 -105,-72l-17 -21c-23,54 7,116 42,164 6,-2 26,-10 19,-35 -1,-3 5,-5 6,-1 7,28 -13,38 -22,41 8,11 17,22 27,33 3,3 -2,7 -4,4 -23,-26 -44,-54 -59,-83 -12,3 -69,21 -51,87 1,4 -4,6 -5,2 -20,-70 38,-90 53,-94 -12,-25 -19,-51 -20,-76 -13,3 -69,22 -50,87 1,4 -5,6 -6,2 -7,-25 -4,-44 4,-58zm-53 -116c16,54 38,104 56,111 15,-23 43,-30 49,-32 1,-17 5,-32 10,-44 23,-47 129,-130 174,-148 -9,-6 -23,-23 -24,-34 -70,21 -167,125 -203,169 -1,1 -4,1 -5,0 -3,-4 -58,-68 -39,-152 -10,3 -32,1 -41,-6 -3,29 10,91 23,136zm21 -77c5,47 31,82 39,92 8,-10 40,-47 80,-84 -18,-20 -46,-48 -74,-46 -24,2 -42,36 -45,38zm259 -53c4,5 13,15 17,14 1,-3 -6,-14 -9,-19 -4,-5 -16,-16 -17,-14 -1,4 6,15 9,19z"/></svg>