<svg xmlns="http://www.w3.org/2000/svg" enable-background="new 0 0 50 50" viewBox="0 0 50 50"><path d="M23,44.1c0.2,0.1,0.7,0.4,0.9,0.5c0.2,0.1,0.8,0,1.2-0.4c0.5-0.4,0.8-1.1,1.1-1.8c1.4-2.9,1.1-1.6,0.1-3.2
		c-0.8,0.8-2.1,1.2-3.3,1.3c-0.5,0.1-1,0.1-1.4,0.5c-0.6,0.6-1.1,0.9-1.9,0.7c-0.2,0.9,0,1.8,0.5,2.6C20.9,43.7,21.9,43.5,23,44.1z"/><path d="M26.5,35.9c0,1.1,0.2,2.3,0.9,3.1c0.4,0.4,0.9,0.9,0.9,1.5c0,0.4-0.9,2.1-1.1,2.5c-2.6,5.3-4.4,1.3-5.8,1.9
		c-1,0.5-0.6,2.7,0,3.4c1,1.3,5.5,0.8,6.4,0c0.5-0.5,0.6-1.3,0.7-2c0.3-1.9,1.4-3.6,1.8-5.5c0.3-1.5,0.4-3.1,0.2-4.6
		C29,36.3,27.7,36.2,26.5,35.9z"/><path d="M20.1,40.9c0.5,0.1,0.8-0.4,1.1-0.7c0.6-0.5,1.5-0.5,2.3-0.6c0.6-0.1,1.2-0.3,1.7-0.6c1.1-0.7,1.2-1.7,0.6-2.6
		c-0.2-0.3-0.5-0.3-0.9-0.2c-5.4,0.8-5.4-1.2-5.4,3.7C19.6,40.3,19.7,40.9,20.1,40.9z"/><path d="M26.4 33.4c-2.6-2.5-6.5-1.7-8.1-.5-1.2.9-1.2 2.6-.6 3.1.9.8 3.3-.3 4.4-.6C26.5 34.4 25.3 37.3 26.4 33.4zM29.3 29.1c-2-.7-1.6 0-1.8 1.2-.4 3-.6 4-.4 4.7 1.2.3 2.2.3 3.3.2.1-.4.3-3.2.3-3.6C30.7 30.5 30.7 29.5 29.3 29.1zM26.6 32.3L26.6 32.3c.3-.4.4-2.3.5-2.9.3-2.5-1.8-2.8-2.2-.2-.1.7-.2 1.3-.2 2C25.4 31.5 26.1 31.8 26.6 32.3zM22.7 28c-1 .3-.8 1.7-.8 2.8.5 0 1.3 0 2 .2.1-.9.4-2-.3-2.7C23.5 28 23.1 27.9 22.7 28zM17.6 32.3c.7-.7 2.9-1.4 3.9-1.5.1-2.3.2-3.1-.1-3.7C20.6 26.2 17.9 25.8 17.6 32.3z"/><path d="M21.4,27.2c1-0.9,2.6-0.6,3.3,0.7c0.2-0.2,0.1-0.5,0-0.8c-0.6-1.3-0.5-2.4-0.7-7.7c0-1.3-0.1-2.6,0.3-3.8
		c0.3-0.8,0.6-1.5,0.2-2.2c-1.9-0.5-3.2,0-2.7,1.8C23.3,19.9,21.4,27.2,21.4,27.2z"/><path d="M17.5 25.2c0 .4-.2 1.8.2 2 .5-1.1 2.1-2 3.6-1.2 1.4-2.3-1.1-4.1-.1-10.5.2-1.2.1-2.1-1.3-2.3-.7-.1-2.7-.1-3.1.5-.5.7.1 2.9.4 3.7C18.4 21 17.6 23.6 17.5 25.2zM21 12.5c-.4-1-1.3-3-.1-5.5.5-1.1-.2-1.2-1.4-.6-.4.2-.2.1-.6 0-.5-.1-1.1 0-1.3.5-.1.3 0 .6 0 .9.6 3-1 4-1.1 5C17.4 12.1 20 12 21 12.5zM27.8 12.2c0-.2-.3-3.7-.3-3.9 0-.3 0-.6-.2-.8-.5-.5-1.5.1-1.6.6-.1.3.2.7.2 1 .1.7 0 1.4-.3 2-.1.2-.2.5-.2.7C26.2 11.6 27.1 11.7 27.8 12.2zM25.8 6.7c.6-.4 1.2-.4 1.7-.2 0-.3-.2-2.8-.3-3-.2-.2-.5-.3-.7-.3C25.4 3.5 25.7 4.1 25.8 6.7zM33.4 16c-.2-.4-.7-.6-1.2-.5-.3 0-1 .3-1.1.6-.1.4.1 1.2.1 1.6.1 1.1-.2 5-.5 10.4 0 .2 0 .4-.1.7.3.2.5.4.6.7.6-.2.4 0 2.2-12.6C33.5 16.5 33.5 16.2 33.4 16zM31 11.6c-.1.3 0 .6.1.9.1.5.2.9.1 1.4 0 .3-.1.5.2.7.5-.2 1-.3 1.5-.2.2-.2.1-.6 0-.8-.2-.8.1-1.4-.1-2.2C32.6 10.6 31.2 10.9 31 11.6zM30.8 10.3c.5-.3 1.2-.5 1.4-.4-.2-.3-.5-.6-.6-1-.1-.5 0-1.1-.5-1.1C30.2 7.6 30.6 9.4 30.8 10.3zM28.2 27.9c.5 0 1.1.2 1.6.3 0-.2.7-13.8.7-14-.5.3-1.1.2-1.7.4 0 1.4-.4 3.6-.5 4 .1.4.1 3.4-.4 6.1C27.9 25.7 29.1 26.7 28.2 27.9zM29.4 9.1c-1.5-.4-1.1 3.1-1.1 3.7 0 .3 0 .6.2.8.9-.3.8.1 1.7-.5C30 10.5 30.1 9.3 29.4 9.1zM29.7 8.2c-.1-.9-.2-1.9-.3-2.8-.4-.2-.9-.1-1.1.3C28.1 6 27.9 8 28 8.6 28.4 8.1 29.1 8 29.7 8.2zM25.6 26.6c.7-.2 1.4-.1 1.9.4.1-.3-.1-.6-.2-.8-1.9-4.4 1.7-11.1.1-13-.4-.5-1.1-.7-1.9-.2.7 1.2 0 2.1-.3 3.3C25.3 20.6 25 24.9 25.6 26.6zM24.8 12.1c-.5-1.4-.6-2.9-.3-4.3.4-2.6-1.8-1.9-2-.6-.1.4.1.7 0 1.1 0 .1-.5 3.6-.6 3.7C23 11.4 23.8 11.7 24.8 12.1zM22.7 5.3C23.2 5 23.8 5 24.3 5.1c-.1-.6-.1-1.2 0-1.8.1-.5.1-1-.1-1.3-.4-.4-1-.4-1.3.1C22.6 2.1 22.7 5 22.7 5.3zM19.1 5.3C19.1 5.3 19.2 5.3 19.1 5.3c.1 0 .1 0 .1 0 .3-.1 1.2-.5 1.5-.3-.3-.3-.5-.7-.5-1 0-.4.2-.7.3-1C21 1.2 18.7.3 18 1.6c-.5.9.2 2.1-.3 2.9-.1.2-.3.4-.4.6-.1.2-.2.4-.1.6C17.7 5.3 18.4 5.2 19.1 5.3z"/></svg>